<?xml version="1.0" standalone="no"?>
<!DOCTYPE svg PUBLIC "-//W3C//DTD SVG 20010904//EN"
 "http://www.w3.org/TR/2001/REC-SVG-20010904/DTD/svg10.dtd">
<svg version="1.0" xmlns="http://www.w3.org/2000/svg"
 width="700.000000pt" height="700.000000pt" viewBox="0 0 700.000000 700.000000"
 preserveAspectRatio="xMidYMid meet">
<metadata>
Created by potrace 1.14, written by Peter Selinger 2001-2017
</metadata>
<g transform="translate(0.000000,700.000000) scale(0.100000,-0.100000)"
fill="#000000" stroke="none">
<path d="M0 3531 c0 -3291 1 -3469 18 -3482 15 -13 16 -12 4 3 -11 14 -11 16
7 11 12 -3 18 -10 15 -17 -3 -6 1 -3 8 6 13 15 15 15 24 0 9 -13 12 -13 19 -2
6 9 4 11 -5 5 -9 -5 -11 -4 -6 3 5 9 15 7 34 -6 14 -9 23 -12 19 -5 -4 6 -3
14 3 18 5 3 10 1 10 -4 0 -6 3 -10 8 -10 4 1 9 0 12 -1 18 -6 80 -4 80 3 0 5
-8 6 -18 2 -13 -5 -14 -3 -5 6 6 6 17 8 25 3 20 -13 41 -14 54 -3 8 7 15 6 20
-2 5 -8 3 -9 -6 -4 -9 6 -11 4 -5 -5 6 -10 10 -10 20 3 10 14 12 14 24 -1 11
-15 11 -15 6 2 -5 16 -3 17 10 6 9 -7 25 -10 41 -6 16 4 23 3 19 -3 -3 -7 0
-8 9 -5 9 3 14 9 12 13 -3 4 8 6 22 5 15 -1 33 -3 40 -3 7 -1 10 -7 7 -13 -4
-7 0 -5 7 4 13 15 15 15 24 0 9 -13 12 -13 19 -2 6 9 4 11 -5 5 -9 -5 -11 -4
-6 3 5 9 15 7 34 -6 14 -9 23 -12 19 -5 -4 6 -3 14 3 18 5 3 10 1 10 -6 0 -9
3 -10 11 -2 14 14 51 5 43 -11 -3 -6 1 -3 8 6 13 15 15 15 24 0 9 -13 12 -13
19 -2 6 9 4 11 -5 5 -9 -5 -11 -4 -6 3 5 9 15 7 34 -6 14 -9 23 -12 19 -5 -4
6 -3 14 3 18 5 3 10 1 10 -4 0 -6 3 -10 8 -10 4 1 9 0 12 -1 18 -6 80 -4 80 3
0 5 -8 6 -18 2 -13 -5 -14 -3 -5 6 6 6 17 8 25 3 20 -13 41 -14 54 -3 8 7 15
6 20 -2 5 -8 3 -9 -6 -4 -9 6 -11 4 -5 -5 6 -10 10 -10 20 3 10 14 12 14 24
-1 11 -15 11 -15 6 2 -5 16 -3 17 10 6 9 -7 25 -10 41 -6 16 4 23 3 19 -3 -3
-7 0 -8 9 -5 9 3 14 9 12 13 -3 4 8 6 22 5 15 -1 33 -3 40 -3 7 -1 10 -7 7
-13 -4 -7 0 -5 7 4 13 15 15 15 24 0 9 -13 12 -13 19 -2 6 9 4 11 -5 5 -9 -5
-11 -4 -6 3 5 9 14 7 32 -5 14 -9 24 -12 23 -7 -4 23 2 26 17 8 13 -16 15 -16
10 -2 -5 15 -3 16 14 5 16 -9 24 -9 40 0 14 9 21 10 26 1 5 -7 3 -8 -6 -3 -9
6 -11 4 -5 -5 6 -10 10 -10 20 3 10 14 12 14 24 -1 11 -15 11 -15 6 3 -5 16
-4 18 6 7 15 -14 33 -16 24 -2 -3 5 -1 10 4 10 6 0 11 -4 11 -9 0 -5 7 -12 16
-15 8 -3 13 -2 9 3 -7 12 15 19 38 13 15 -4 16 -7 5 -13 -10 -7 -10 -9 0 -9 7
0 15 7 18 15 6 14 8 13 21 -2 14 -17 14 -17 9 0 -5 16 -4 16 19 1 15 -10 25
-12 25 -5 0 6 -5 11 -12 11 -6 0 -9 3 -6 6 3 3 15 -1 27 -8 17 -10 25 -10 41
-1 14 9 21 10 26 1 5 -7 3 -8 -6 -3 -9 6 -11 4 -5 -5 6 -10 10 -10 20 3 10 14
12 14 24 -1 11 -15 11 -15 6 3 -5 16 -4 18 6 7 15 -14 33 -16 24 -2 -3 5 -1
10 4 10 6 0 11 -4 11 -9 0 -5 7 -12 16 -15 8 -3 13 -2 9 3 -7 12 15 19 38 13
15 -4 16 -7 5 -13 -10 -7 -10 -9 0 -9 7 0 15 7 18 15 6 14 8 13 21 -2 14 -17
14 -17 8 2 -5 16 -4 18 6 8 17 -17 32 -17 23 -1 -5 9 -2 8 10 -1 19 -16 86
-22 86 -8 0 5 -8 6 -17 2 -14 -5 -15 -3 -6 6 6 6 17 8 25 3 20 -13 41 -14 54
-3 8 7 15 6 20 -2 5 -8 3 -9 -6 -4 -9 6 -11 4 -5 -5 6 -10 10 -10 20 3 10 14
12 14 24 -1 11 -15 11 -15 6 2 -5 16 -3 17 10 6 9 -7 25 -10 41 -6 16 4 23 3
19 -3 -3 -7 0 -8 9 -5 9 3 14 9 12 13 -3 4 8 6 22 5 15 -1 33 -3 40 -3 7 -1
10 -7 7 -13 -4 -7 0 -5 7 4 13 15 15 15 24 0 9 -13 12 -13 19 -2 6 9 4 11 -5
5 -9 -5 -11 -4 -6 3 5 9 15 7 34 -6 14 -9 23 -12 19 -5 -4 6 -3 14 3 18 5 3
10 1 10 -4 0 -6 3 -10 8 -10 4 1 9 0 12 -1 18 -6 80 -4 80 3 0 5 -8 6 -18 2
-13 -5 -14 -3 -5 6 6 6 17 8 25 3 20 -13 41 -14 54 -3 8 7 15 6 20 -2 5 -8 3
-9 -6 -4 -9 6 -11 4 -5 -5 6 -10 10 -10 20 3 10 14 12 14 24 -1 11 -15 11 -15
6 2 -5 16 -3 17 10 6 9 -7 25 -10 41 -6 16 4 23 3 19 -3 -3 -7 0 -8 9 -5 9 3
14 9 12 13 -3 4 8 6 22 5 15 -1 33 -3 40 -3 7 -1 10 -7 7 -13 -4 -7 0 -5 7 4
13 15 15 15 24 0 9 -13 12 -13 19 -2 6 9 4 11 -5 5 -9 -5 -11 -4 -6 3 5 9 15
7 34 -6 14 -9 23 -12 19 -5 -4 6 -3 14 3 18 5 3 10 1 10 -4 0 -6 3 -10 8 -10
4 1 9 0 12 -1 18 -6 80 -4 80 3 0 5 -8 6 -17 2 -14 -5 -15 -3 -6 6 6 6 17 8
25 3 20 -13 41 -14 54 -3 8 7 15 6 20 -2 5 -8 3 -9 -6 -4 -9 6 -11 4 -5 -5 6
-10 10 -10 20 3 10 14 12 14 24 -1 11 -15 11 -15 6 2 -5 16 -3 17 10 6 9 -7
25 -10 41 -6 16 4 23 3 19 -3 -3 -7 0 -8 9 -5 9 3 14 9 11 13 -5 9 23 7 49 -4
11 -5 26 -3 37 3 13 9 20 9 25 0 5 -7 3 -8 -6 -3 -9 6 -11 4 -5 -5 6 -10 10
-10 20 3 10 14 12 14 24 -1 11 -15 11 -15 6 3 -5 16 -4 18 6 8 15 -15 33 -17
24 -3 -3 5 -1 10 4 10 6 0 11 -4 11 -9 0 -5 7 -12 16 -15 8 -3 13 -2 9 3 -7
12 15 19 38 13 15 -4 16 -7 5 -13 -10 -7 -10 -9 0 -9 7 0 15 7 18 15 6 14 8
13 21 -2 14 -17 14 -17 9 0 -5 16 -4 16 19 1 15 -10 25 -12 25 -5 0 6 -5 11
-12 11 -6 0 -9 3 -6 6 3 3 15 -1 27 -8 17 -10 25 -10 41 -1 14 9 21 10 26 1 5
-7 3 -8 -6 -3 -9 6 -11 4 -5 -5 7 -11 10 -11 19 2 9 15 11 15 24 0 12 -16 13
-15 7 3 -5 16 -4 18 6 8 15 -15 33 -17 24 -3 -3 5 -1 10 4 10 6 0 11 -4 11 -9
0 -5 7 -12 16 -15 8 -3 13 -2 9 3 -7 12 15 19 38 13 15 -4 16 -7 5 -13 -10 -7
-10 -9 0 -9 7 0 15 7 18 15 6 14 8 13 21 -2 14 -17 14 -17 8 2 -5 16 -4 18 6
8 15 -15 33 -17 25 -4 -4 5 2 8 11 6 10 -2 24 -4 31 -4 7 -1 10 -7 7 -13 -4
-7 0 -5 7 4 13 15 15 15 24 0 9 -13 12 -13 19 -2 6 9 4 11 -5 5 -9 -5 -11 -4
-6 3 5 9 15 7 34 -6 14 -9 23 -12 19 -5 -4 6 -3 14 3 18 5 3 10 1 10 -4 0 -6
3 -10 8 -10 4 1 9 0 12 -1 18 -6 80 -4 80 3 0 5 -8 6 -17 2 -14 -5 -15 -3 -6
6 6 6 17 8 25 3 20 -13 41 -14 54 -3 8 7 15 6 20 -2 5 -8 3 -9 -6 -4 -9 6 -11
4 -5 -5 6 -10 10 -10 20 3 10 14 12 14 24 -1 11 -15 11 -15 6 2 -5 16 -3 17
10 6 9 -7 25 -10 41 -6 16 4 23 3 19 -3 -3 -7 0 -8 9 -5 9 3 14 9 12 13 -3 4
8 6 22 5 15 -1 33 -3 40 -3 7 -1 10 -7 7 -13 -4 -7 0 -5 7 4 13 15 15 15 24 0
9 -13 12 -13 19 -2 6 9 4 11 -5 5 -9 -5 -11 -4 -6 3 5 9 15 7 34 -6 14 -9 23
-12 19 -5 -4 6 -3 14 3 18 5 3 10 1 10 -6 0 -9 3 -10 11 -2 14 14 51 5 43 -11
-3 -6 1 -3 8 6 13 15 15 15 24 0 9 -13 12 -13 19 -2 6 9 4 11 -5 5 -9 -5 -11
-4 -6 3 5 9 15 7 34 -6 14 -9 23 -12 19 -5 -4 6 -3 14 3 18 5 3 10 1 10 -4 0
-6 3 -10 8 -10 4 1 9 0 12 -1 18 -6 80 -4 80 3 0 5 -8 6 -17 2 -14 -5 -15 -3
-6 6 6 6 17 8 25 3 20 -13 41 -14 54 -3 8 7 15 6 20 -2 5 -8 3 -9 -6 -4 -9 6
-11 4 -5 -5 6 -10 10 -10 20 3 10 14 12 14 24 -1 11 -15 11 -15 6 2 -5 16 -3
17 10 6 9 -7 25 -10 41 -6 16 4 23 3 19 -3 -3 -7 0 -8 9 -5 9 3 14 9 12 13 -3
4 8 6 22 5 15 -1 33 -3 40 -3 7 -1 10 -7 7 -13 -4 -7 0 -5 7 4 13 15 15 15 24
0 9 -13 12 -13 19 -2 6 9 4 11 -5 5 -9 -5 -11 -4 -6 3 5 9 15 7 34 -6 14 -9
23 -12 19 -5 -4 6 -3 14 3 18 5 3 10 1 10 -6 0 -9 3 -10 11 -2 14 14 51 5 43
-11 -3 -6 1 -3 8 6 13 15 15 15 24 0 9 -13 12 -13 19 -2 6 9 4 11 -5 5 -9 -5
-11 -4 -6 3 5 9 15 7 34 -6 14 -9 23 -12 19 -5 -4 6 -3 14 3 18 5 3 10 1 10
-4 0 -6 3 -10 8 -10 4 1 9 0 12 -1 18 -6 80 -4 80 3 0 5 -8 6 -17 2 -14 -5
-15 -3 -6 6 6 6 17 8 25 3 20 -13 41 -14 54 -3 8 7 15 6 20 -2 5 -8 3 -9 -6
-4 -9 6 -11 4 -5 -5 6 -10 10 -10 20 3 10 14 12 14 24 -1 11 -15 11 -15 6 2
-5 16 -3 17 10 6 9 -7 25 -10 41 -6 16 4 23 3 19 -3 -3 -7 0 -8 9 -5 9 3 14 9
12 13 -3 4 8 6 22 5 15 -1 33 -3 40 -3 7 -1 10 -7 7 -13 -4 -7 0 -5 7 4 13 15
15 15 24 0 9 -13 12 -13 19 -2 6 9 4 11 -5 5 -9 -5 -11 -4 -6 3 5 9 15 7 34
-6 14 -9 23 -12 19 -5 -4 6 -3 14 3 18 5 3 10 1 10 -6 0 -9 3 -10 11 -2 14 14
51 5 43 -11 -3 -6 1 -3 8 6 13 15 15 15 24 0 9 -13 12 -13 19 -2 6 9 4 11 -5
5 -9 -5 -11 -4 -6 3 5 9 15 7 34 -6 14 -9 23 -12 19 -5 -4 6 -3 14 3 18 5 3
10 1 10 -4 0 -6 3 -10 8 -10 4 1 9 0 12 -1 18 -6 80 -4 80 3 0 5 -8 6 -17 2
-14 -5 -15 -3 -6 6 6 6 17 8 25 3 20 -13 41 -14 54 -3 8 7 15 6 20 -2 5 -8 3
-9 -6 -4 -9 6 -11 4 -5 -5 6 -10 10 -10 20 3 10 14 12 14 24 -1 11 -15 11 -15
6 2 -5 16 -3 17 10 6 9 -7 25 -10 41 -6 16 4 23 3 19 -3 -3 -7 0 -8 9 -5 9 3
14 9 12 13 -3 4 8 6 22 5 15 -1 33 -3 40 -3 7 -1 10 -7 7 -13 -4 -7 0 -5 7 4
13 15 15 15 24 0 9 -13 12 -13 19 -2 6 9 4 11 -5 5 -9 -5 -11 -4 -6 3 5 9 14
7 32 -5 14 -9 24 -12 23 -7 -4 23 2 26 17 8 13 -16 15 -16 10 -2 -5 15 -3 16
14 5 16 -9 24 -9 40 0 14 9 21 10 26 1 5 -7 3 -8 -6 -3 -9 6 -11 4 -5 -5 6
-10 10 -10 20 3 10 14 12 14 24 -1 11 -15 11 -15 6 3 -5 16 -4 18 6 8 15 -15
33 -17 24 -3 -3 5 -1 10 4 10 6 0 11 -4 11 -9 0 -5 7 -12 16 -15 8 -3 13 -2 9
3 -7 12 15 19 38 13 15 -4 16 -7 5 -13 -10 -7 -10 -9 0 -9 7 0 15 7 18 15 6
14 8 13 21 -2 14 -17 14 -17 9 0 -5 16 -4 16 19 1 15 -10 25 -12 25 -5 0 6 -5
11 -12 11 -6 0 -9 3 -6 6 3 3 15 -1 27 -8 17 -10 25 -10 41 -1 14 9 21 10 26
1 5 -7 3 -8 -6 -3 -9 6 -11 4 -5 -5 6 -10 10 -10 20 3 10 14 12 14 24 -1 11
-15 11 -15 6 3 -5 16 -4 18 6 8 15 -15 33 -17 24 -3 -3 6 -1 10 4 10 6 0 11
-4 11 -9 0 -5 7 -12 16 -15 8 -3 13 -2 9 3 -7 12 15 19 38 13 15 -4 16 -7 5
-13 -10 -7 -10 -9 0 -9 7 0 15 7 19 16 5 13 7 13 14 2 5 -7 9 1552 9 3465 l0
3477 -3500 0 -3500 0 0 -3469z"/>
<path d="M3195 50 c-3 -5 -1 -10 4 -10 6 0 11 5 11 10 0 6 -2 10 -4 10 -3 0
-8 -4 -11 -10z"/>
</g>
</svg>
